<?xml version="1.0" standalone="no"?>
<!DOCTYPE svg PUBLIC "-//W3C//DTD SVG 20010904//EN"
 "http://www.w3.org/TR/2001/REC-SVG-20010904/DTD/svg10.dtd">
<svg version="1.0" xmlns="http://www.w3.org/2000/svg"
 width="1024.000000pt" height="1024.000000pt" viewBox="0 0 1024.000000 1024.000000"
 preserveAspectRatio="xMidYMid meet">
<metadata>
Created by potrace 1.11, written by Peter Selinger 2001-2013
</metadata>
<g transform="translate(0.000000,1024.000000) scale(0.100000,-0.100000)"
fill="#000000" stroke="none">
<path d="M4673 8945 c-78 -21 -136 -52 -174 -91 l-34 -35 -3 -194 c-3 -189 -4
-193 -25 -199 -12 -3 -32 -6 -45 -6 -13 0 -37 -13 -53 -29 l-29 -29 0 -161 0
-161 55 0 55 0 0 -653 0 -652 -82 -19 c-46 -10 -141 -37 -213 -61 -480 -161
-800 -405 -921 -703 -46 -114 -58 -180 -56 -307 1 -103 210 -3517 228 -3724 6
-72 7 -75 54 -121 119 -116 353 -195 685 -232 169 -18 1850 -19 2010 0 334 39
567 117 684 231 48 47 49 49 55 122 18 207 227 3621 228 3724 2 127 -10 193
-56 307 -121 298 -441 542 -921 703 -71 24 -167 51 -212 61 l-83 19 0 652 0
653 55 0 55 0 0 161 0 161 -29 29 c-16 16 -40 29 -53 29 -13 0 -33 3 -45 6
-21 6 -22 10 -25 201 l-3 195 -46 42 c-25 23 -74 52 -110 66 l-64 25 -415 2
c-333 2 -425 -1 -467 -12z"/>
</g>
</svg>
